<svg width="316" height="175" viewBox="0 0 316 175" fill="none" xmlns="http://www.w3.org/2000/svg">
<path d="M103.634 132.366C97.8007 132.366 93.6261 130.872 91.1099 127.886C88.6509 124.9 87.6502 120.937 88.1076 115.998C88.1648 115.194 88.4508 114.792 88.9654 114.792H95.3131C95.885 114.792 96.1709 115.194 96.1709 115.998C95.9421 119.042 96.4854 121.339 97.8007 122.89C99.1732 124.383 101.232 125.13 103.977 125.13C106.665 125.13 108.637 124.527 109.896 123.32C111.154 122.114 111.783 120.219 111.783 117.635C111.783 116.314 111.611 115.137 111.268 114.103C110.925 113.069 110.353 112.122 109.552 111.26C108.809 110.399 107.78 109.595 106.464 108.848L97.286 103.421C94.198 101.526 91.9391 99.4298 90.5095 97.1326C89.137 94.778 88.4794 91.9065 88.5365 88.5181C88.5937 83.9812 89.8804 80.5354 92.3966 78.1808C94.97 75.7688 98.6871 74.5627 103.548 74.5627C108.923 74.5627 112.955 75.9698 115.643 78.7838C118.388 81.5404 119.531 85.4456 119.074 90.4995C118.96 91.3609 118.674 91.7916 118.216 91.7916H111.697C111.125 91.7916 110.896 91.3609 111.011 90.4995C111.239 87.8003 110.696 85.7041 109.381 84.2109C108.123 82.6603 106.236 81.885 103.719 81.885C101.489 81.885 99.7736 82.4306 98.5727 83.5218C97.3718 84.5555 96.7713 86.1635 96.7713 88.3458C96.7142 90.3559 97.1145 92.0213 97.9722 93.3422C98.83 94.6057 100.26 95.8117 102.261 96.9603L111.182 102.301C113.355 103.565 115.071 104.914 116.329 106.35C117.644 107.728 118.588 109.336 119.16 111.174C119.732 112.954 120.017 115.108 120.017 117.635C120.017 122.287 118.702 125.905 116.072 128.489C113.441 131.073 109.295 132.366 103.634 132.366Z" fill="#01216E"/>
<path d="M142.692 132.366C141.034 132.366 139.289 132.136 137.459 131.676C135.63 131.217 134.057 130.585 132.742 129.781L132.656 123.062C133.8 123.694 135.029 124.239 136.344 124.699C137.66 125.101 138.946 125.302 140.204 125.302C142.092 125.302 143.493 124.613 144.408 123.234C145.38 121.856 145.866 119.702 145.866 116.774V102.301C145.866 100.119 145.523 98.5396 144.836 97.5633C144.207 96.5296 143.149 96.0127 141.663 96.0127C140.233 96.0127 138.775 96.5296 137.288 97.5633C135.858 98.5396 134.286 99.9753 132.57 101.871L131.884 95.8404C133.943 93.6007 135.973 91.8778 137.974 90.6717C139.976 89.4083 142.177 88.7766 144.579 88.7766C147.724 88.7766 150.069 89.7816 151.613 91.7916C153.214 93.8017 154.015 96.9603 154.015 101.268V117.204C154.015 122.315 153.043 126.135 151.098 128.661C149.154 131.131 146.352 132.366 142.692 132.366ZM126.48 147.613C125.965 147.613 125.708 147.326 125.708 146.752V99.5446C125.708 97.7069 125.679 96.0414 125.622 94.5482C125.565 92.9976 125.479 91.648 125.365 90.4995C125.25 89.8103 125.479 89.4657 126.051 89.4657H131.798C132.256 89.4657 132.541 89.7242 132.656 90.241C132.77 90.9302 132.885 91.8778 132.999 93.0838C133.113 94.2898 133.171 95.3523 133.171 96.2711L133.771 99.4585V146.752C133.771 147.326 133.514 147.613 132.999 147.613H126.48Z" fill="#01216E"/>
<path d="M179.648 131.676C179.248 131.676 178.962 131.361 178.79 130.729C178.676 129.925 178.533 128.776 178.361 127.283C178.247 125.733 178.19 124.383 178.19 123.234L177.589 121.511V101.698C177.589 99.401 177.246 97.8217 176.56 96.9603C175.874 96.0414 174.587 95.582 172.7 95.582C169.269 95.582 167.668 97.3049 167.896 100.751C167.896 101.382 167.61 101.698 167.039 101.698H161.206C160.577 101.698 160.233 101.268 160.176 100.406C159.89 96.7306 160.834 93.8878 163.007 91.8778C165.237 89.8103 168.554 88.7766 172.957 88.7766C177.418 88.7766 180.649 89.7816 182.65 91.7916C184.652 93.8017 185.653 97.1039 185.653 101.698V121.081C185.653 123.378 185.681 125.302 185.738 126.852C185.853 128.346 185.939 129.609 185.996 130.643C186.11 131.332 185.881 131.676 185.309 131.676H179.648ZM167.296 132.366C164.608 132.366 162.492 131.389 160.948 129.437C159.461 127.427 158.718 124.584 158.718 120.908C158.718 116.774 159.747 113.586 161.806 111.346C163.922 109.107 167.467 107.728 172.443 107.211L178.533 106.522V112.036L173.472 112.552C171.013 112.84 169.24 113.586 168.154 114.792C167.124 115.941 166.61 117.692 166.61 120.047C166.61 121.827 166.896 123.206 167.467 124.182C168.039 125.101 168.926 125.56 170.127 125.56C171.385 125.56 172.671 125.101 173.987 124.182C175.302 123.263 176.932 121.626 178.876 119.272L179.219 125.13C177.103 127.599 175.13 129.437 173.3 130.643C171.528 131.791 169.526 132.366 167.296 132.366Z" fill="#01216E"/>
<path d="M193.322 131.676C192.808 131.676 192.55 131.389 192.55 130.815V100.061C192.55 97.9366 192.522 96.1276 192.465 94.6344C192.407 93.0838 192.322 91.7055 192.207 90.4995C192.093 89.8103 192.322 89.4657 192.894 89.4657H198.641C199.098 89.4657 199.384 89.7242 199.499 90.241C199.67 91.3322 199.813 92.6244 199.927 94.1175C200.042 95.6107 200.099 96.8741 200.099 97.9079L200.614 100.406V130.815C200.614 131.389 200.356 131.676 199.842 131.676H193.322ZM199.842 103.593L199.499 96.2711C200.356 95.0077 201.357 93.8017 202.501 92.6531C203.645 91.5045 204.845 90.5856 206.104 89.8964C207.419 89.1499 208.734 88.7766 210.049 88.7766C210.45 88.7766 210.764 88.7766 210.993 88.7766C211.279 88.7766 211.565 88.834 211.851 88.9489C212.08 89.0063 212.222 89.1211 212.28 89.2934C212.394 89.4657 212.451 89.7242 212.451 90.0687C212.508 91.2748 212.508 92.5095 212.451 93.7729C212.451 94.979 212.394 96.185 212.28 97.391C212.222 97.9079 211.908 98.1376 211.336 98.0802C210.993 97.9653 210.621 97.9079 210.221 97.9079C209.878 97.8504 209.478 97.8217 209.02 97.8217C207.991 97.8217 206.933 98.0515 205.846 98.5109C204.76 98.9703 203.702 99.6308 202.672 100.492C201.643 101.354 200.699 102.387 199.842 103.593Z" fill="#01216E"/>
<path d="M217.152 131.676C216.638 131.676 216.38 131.389 216.38 130.815V73.7013C216.38 73.127 216.638 72.8398 217.152 72.8398H223.672C224.186 72.8398 224.444 73.127 224.444 73.7013V96.5296C224.444 98.3673 224.415 100.205 224.358 102.043C224.358 103.823 224.329 105.632 224.272 107.47H224.358C225.158 106.092 225.93 104.771 226.674 103.507C227.417 102.186 228.246 100.866 229.161 99.5446L235.766 89.9826C235.995 89.638 236.281 89.4657 236.624 89.4657H244.43C244.716 89.4657 244.888 89.5806 244.945 89.8103C245.059 89.9826 245.002 90.2123 244.773 90.4995L233.879 106.005L245.803 130.557C245.974 130.844 246.003 131.102 245.888 131.332C245.831 131.562 245.631 131.676 245.288 131.676H237.825C237.425 131.676 237.11 131.475 236.882 131.073L228.389 112.725L224.444 118.066V130.815C224.444 131.389 224.215 131.676 223.757 131.676H217.152Z" fill="#01216E"/>
<path d="M250.029 131.676C249.515 131.676 249.257 131.389 249.257 130.815V73.7013C249.257 73.127 249.515 72.8398 250.029 72.8398H256.548C257.063 72.8398 257.32 73.127 257.32 73.7013V130.815C257.32 131.389 257.063 131.676 256.548 131.676H250.029Z" fill="#01216E"/>
<path d="M277.932 132.366C273.129 132.366 269.497 131.102 267.038 128.575C264.636 126.048 263.436 122.201 263.436 117.032V104.11C263.436 98.999 264.636 95.18 267.038 92.6531C269.497 90.0687 273.071 88.7766 277.761 88.7766C282.507 88.7766 286.053 90.0687 288.397 92.6531C290.799 95.18 292 98.9703 292 104.024V111.605C292 112.237 291.743 112.552 291.228 112.552H271.499V116.774C271.499 119.817 272.013 122.028 273.043 123.407C274.072 124.785 275.759 125.474 278.104 125.474C279.991 125.474 281.392 125.072 282.307 124.268C283.279 123.407 283.708 122.143 283.594 120.478C283.594 119.846 283.851 119.53 284.366 119.53H290.628C291.085 119.53 291.371 119.817 291.485 120.392C291.543 124.239 290.427 127.197 288.14 129.264C285.852 131.332 282.45 132.366 277.932 132.366ZM271.499 106.436H284.023V103.766C284.023 100.952 283.536 98.9129 282.564 97.6494C281.592 96.3286 280.02 95.6681 277.846 95.6681C275.673 95.6681 274.072 96.3286 273.043 97.6494C272.013 98.9703 271.499 101.009 271.499 103.766V106.436Z" fill="#01216E"/>
<path d="M25.1023 79.9206L26.169 80.5455C41.3906 89.4628 60.3184 89.2221 75.3069 79.9206V79.9206V79.9206C65.9771 94.8638 65.7357 113.734 74.6801 128.91L75.3069 129.973V129.973C59.9797 120.296 40.4295 120.296 25.1023 129.973V129.973V129.973C34.8095 114.693 34.8095 95.2014 25.1023 79.9206V79.9206Z" fill="#FFCD00"/>
<path d="M92.9815 39.528L93.4842 39.8899C100.745 45.1178 110.313 45.8979 118.325 41.9152V41.9152V41.9152C112.9 49.0148 111.877 58.5316 115.668 66.6216L115.93 67.1816V67.1816C108.656 61.5675 98.783 60.64 90.5872 64.7944V64.7944V64.7944C96.2154 57.546 97.1507 47.7033 92.9815 39.528V39.528Z" fill="#FFCD00"/>
<path d="M135.591 23.0964L135.786 23.4395C138.737 28.627 144.323 31.7534 150.288 31.5561V31.5561V31.5561C145.024 34.3585 141.754 39.8506 141.8 45.8141L141.803 46.2086V46.2086C138.957 40.7928 133.219 37.4991 127.106 37.749V37.749V37.749C132.525 34.918 135.842 29.2055 135.591 23.0964V23.0964Z" fill="#FFCD00"/>
<path d="M164.56 21.8884L164.665 22.1283C166.253 25.7763 169.734 28.2438 173.702 28.5343V28.5343V28.5343C170.013 30.0202 167.455 33.4305 167.061 37.3878L167.036 37.648V37.648C165.534 33.8569 161.963 31.2682 157.894 31.0021V31.0021V31.0021C161.687 29.5087 164.293 25.9558 164.56 21.8884V21.8884Z" fill="#FFCD00"/>
</svg>
