<svg width="440" height="299" viewBox="0 0 440 299" fill="none" xmlns="http://www.w3.org/2000/svg">
<g clip-path="url(#clip0_29_13)">
<path d="M163.634 202.706C157.801 202.706 153.626 201.209 151.11 198.213C148.651 195.218 147.65 191.243 148.108 186.289C148.165 185.483 148.451 185.079 148.965 185.079H155.313C155.885 185.079 156.171 185.483 156.171 186.289C155.942 189.342 156.485 191.646 157.801 193.202C159.173 194.699 161.232 195.448 163.977 195.448C166.665 195.448 168.637 194.843 169.896 193.634C171.154 192.424 171.783 190.523 171.783 187.931C171.783 186.606 171.611 185.425 171.268 184.388C170.925 183.351 170.353 182.401 169.552 181.537C168.809 180.673 167.78 179.866 166.464 179.118L157.286 173.674C154.198 171.773 151.939 169.671 150.509 167.366C149.137 165.005 148.479 162.124 148.537 158.726C148.594 154.175 149.88 150.719 152.397 148.357C154.97 145.938 158.687 144.728 163.548 144.728C168.923 144.728 172.955 146.139 175.643 148.962C178.388 151.727 179.531 155.644 179.074 160.713C178.96 161.577 178.674 162.009 178.216 162.009H171.697C171.125 162.009 170.896 161.577 171.011 160.713C171.239 158.006 170.696 155.903 169.381 154.406C168.123 152.85 166.236 152.073 163.719 152.073C161.489 152.073 159.774 152.62 158.573 153.714C157.372 154.751 156.771 156.364 156.771 158.553C156.714 160.569 157.114 162.24 157.972 163.565C158.83 164.832 160.26 166.041 162.261 167.194L171.182 172.551C173.355 173.818 175.071 175.172 176.329 176.612C177.644 177.994 178.588 179.607 179.16 181.45C179.732 183.236 180.017 185.396 180.017 187.931C180.017 192.597 178.702 196.226 176.072 198.818C173.441 201.41 169.295 202.706 163.634 202.706Z" fill="white"/>
<path d="M202.692 202.706C201.034 202.706 199.289 202.476 197.459 202.015C195.63 201.554 194.057 200.921 192.742 200.114L192.656 193.374C193.8 194.008 195.029 194.555 196.344 195.016C197.66 195.419 198.946 195.621 200.204 195.621C202.092 195.621 203.493 194.93 204.408 193.547C205.38 192.165 205.866 190.005 205.866 187.067V172.551C205.866 170.362 205.523 168.778 204.836 167.798C204.207 166.762 203.149 166.243 201.663 166.243C200.233 166.243 198.775 166.762 197.288 167.798C195.858 168.778 194.286 170.218 192.57 172.119L191.884 166.07C193.943 163.824 195.973 162.096 197.974 160.886C199.976 159.619 202.177 158.985 204.579 158.985C207.724 158.985 210.069 159.993 211.613 162.009C213.214 164.025 214.015 167.194 214.015 171.514V187.499C214.015 192.626 213.043 196.456 211.098 198.991C209.154 201.468 206.352 202.706 202.692 202.706ZM186.48 218C185.965 218 185.708 217.712 185.708 217.136V169.786C185.708 167.942 185.679 166.272 185.622 164.774C185.565 163.219 185.479 161.865 185.365 160.713C185.25 160.022 185.479 159.676 186.051 159.676H191.798C192.256 159.676 192.541 159.935 192.656 160.454C192.77 161.145 192.885 162.096 192.999 163.305C193.113 164.515 193.171 165.581 193.171 166.502L193.771 169.699V217.136C193.771 217.712 193.514 218 192.999 218H186.48Z" fill="white"/>
<path d="M239.648 202.015C239.248 202.015 238.962 201.698 238.79 201.065C238.676 200.258 238.533 199.106 238.361 197.608C238.247 196.053 238.19 194.699 238.19 193.547L237.589 191.819V171.946C237.589 169.642 237.246 168.058 236.56 167.194C235.874 166.272 234.587 165.811 232.7 165.811C229.269 165.811 227.668 167.539 227.896 170.995C227.896 171.629 227.61 171.946 227.039 171.946H221.206C220.577 171.946 220.233 171.514 220.176 170.65C219.89 166.963 220.834 164.112 223.007 162.096C225.237 160.022 228.554 158.985 232.957 158.985C237.418 158.985 240.649 159.993 242.65 162.009C244.652 164.025 245.653 167.338 245.653 171.946V191.387C245.653 193.691 245.681 195.621 245.738 197.176C245.853 198.674 245.939 199.941 245.996 200.978C246.11 201.669 245.881 202.015 245.309 202.015H239.648ZM227.296 202.706C224.608 202.706 222.492 201.727 220.948 199.768C219.461 197.752 218.718 194.901 218.718 191.214C218.718 187.067 219.747 183.87 221.806 181.623C223.922 179.377 227.467 177.994 232.443 177.476L238.533 176.785V182.315L233.472 182.833C231.013 183.121 229.24 183.87 228.154 185.079C227.124 186.232 226.61 187.988 226.61 190.35C226.61 192.136 226.896 193.518 227.467 194.498C228.039 195.419 228.926 195.88 230.127 195.88C231.385 195.88 232.671 195.419 233.987 194.498C235.302 193.576 236.932 191.934 238.876 189.573L239.219 195.448C237.103 197.925 235.13 199.768 233.3 200.978C231.528 202.13 229.526 202.706 227.296 202.706Z" fill="white"/>
<path d="M253.322 202.015C252.808 202.015 252.55 201.727 252.55 201.151V170.304C252.55 168.173 252.522 166.358 252.465 164.861C252.407 163.305 252.322 161.923 252.207 160.713C252.093 160.022 252.322 159.676 252.894 159.676H258.641C259.098 159.676 259.384 159.935 259.499 160.454C259.67 161.548 259.813 162.844 259.927 164.342C260.042 165.84 260.099 167.107 260.099 168.144L260.614 170.65V201.151C260.614 201.727 260.356 202.015 259.842 202.015H253.322ZM259.842 173.847L259.499 166.502C260.356 165.235 261.357 164.025 262.501 162.873C263.645 161.721 264.845 160.8 266.104 160.108C267.419 159.359 268.734 158.985 270.049 158.985C270.45 158.985 270.764 158.985 270.993 158.985C271.279 158.985 271.565 159.043 271.851 159.158C272.08 159.215 272.222 159.331 272.28 159.503C272.394 159.676 272.451 159.935 272.451 160.281C272.508 161.491 272.508 162.729 272.451 163.997C272.451 165.206 272.394 166.416 272.28 167.626C272.222 168.144 271.908 168.374 271.336 168.317C270.993 168.202 270.621 168.144 270.221 168.144C269.878 168.086 269.478 168.058 269.02 168.058C267.991 168.058 266.933 168.288 265.846 168.749C264.76 169.21 263.702 169.872 262.672 170.736C261.643 171.6 260.699 172.637 259.842 173.847Z" fill="white"/>
<path d="M277.152 202.015C276.638 202.015 276.38 201.727 276.38 201.151V143.864C276.38 143.288 276.638 143 277.152 143H283.672C284.186 143 284.444 143.288 284.444 143.864V166.762C284.444 168.605 284.415 170.448 284.358 172.291C284.358 174.077 284.329 175.892 284.272 177.735H284.358C285.158 176.353 285.93 175.028 286.674 173.76C287.417 172.435 288.246 171.111 289.161 169.786L295.766 160.195C295.995 159.849 296.281 159.676 296.624 159.676H304.43C304.716 159.676 304.888 159.791 304.945 160.022C305.059 160.195 305.002 160.425 304.773 160.713L293.879 176.266L305.803 200.892C305.974 201.18 306.003 201.439 305.888 201.669C305.831 201.9 305.631 202.015 305.288 202.015H297.825C297.425 202.015 297.11 201.813 296.882 201.41L288.389 183.006L284.444 188.363V201.151C284.444 201.727 284.215 202.015 283.757 202.015H277.152Z" fill="white"/>
<path d="M310.029 202.015C309.515 202.015 309.257 201.727 309.257 201.151V143.864C309.257 143.288 309.515 143 310.029 143H316.548C317.063 143 317.32 143.288 317.32 143.864V201.151C317.32 201.727 317.063 202.015 316.548 202.015H310.029Z" fill="white"/>
<path d="M337.932 202.706C333.129 202.706 329.497 201.439 327.038 198.904C324.636 196.37 323.436 192.51 323.436 187.326V174.365C323.436 169.238 324.636 165.408 327.038 162.873C329.497 160.281 333.071 158.985 337.761 158.985C342.507 158.985 346.053 160.281 348.397 162.873C350.799 165.408 352 169.21 352 174.279V181.882C352 182.516 351.743 182.833 351.228 182.833H331.499V187.067C331.499 190.12 332.013 192.338 333.043 193.72C334.072 195.103 335.759 195.794 338.104 195.794C339.991 195.794 341.392 195.391 342.307 194.584C343.279 193.72 343.708 192.453 343.594 190.782C343.594 190.149 343.851 189.832 344.366 189.832H350.628C351.085 189.832 351.371 190.12 351.485 190.696C351.543 194.555 350.427 197.522 348.14 199.596C345.852 201.669 342.45 202.706 337.932 202.706ZM331.499 176.698H344.023V174.02C344.023 171.197 343.536 169.152 342.564 167.885C341.592 166.56 340.02 165.897 337.846 165.897C335.673 165.897 334.072 166.56 333.043 167.885C332.013 169.21 331.499 171.255 331.499 174.02V176.698Z" fill="white"/>
<path d="M85.1023 150.102L86.169 150.729C101.391 159.673 120.318 159.432 135.307 150.102V150.102V150.102C125.977 165.091 125.736 184.019 134.68 199.24L135.307 200.307V200.307C119.98 190.6 100.429 190.6 85.1023 200.307V200.307V200.307C94.8095 184.98 94.8095 165.429 85.1023 150.102V150.102Z" fill="#FFCD00"/>
<path d="M152.982 109.587L153.49 109.955C160.747 115.196 170.313 115.976 178.325 111.982V111.982V111.982C172.9 119.103 171.875 128.646 175.665 136.756L175.93 137.325V137.325C168.656 131.693 158.787 130.761 150.587 134.93V134.93V134.93C156.218 127.656 157.151 117.787 152.982 109.587V109.587Z" fill="#FFCD00"/>
<path d="M195.591 93.1058L195.797 93.4696C198.742 98.6607 204.323 101.789 210.288 101.591V101.591V101.591C205.024 104.402 201.754 109.902 201.8 115.87L201.803 116.288V116.288C198.957 110.856 193.233 107.552 187.106 107.803V107.803V107.803C192.538 104.957 195.842 99.2334 195.591 93.1058V93.1058Z" fill="#FFCD00"/>
<path d="M224.56 91.8942L224.671 92.15C226.255 95.7996 229.734 98.2689 233.702 98.5602V98.5602V98.5602C230.013 100.051 227.456 103.465 227.063 107.424L227.036 107.702V107.702C225.534 103.899 221.974 101.303 217.894 101.036V101.036V101.036C221.697 99.5336 224.293 95.9739 224.56 91.8942V91.8942Z" fill="#FFCD00"/>
</g>
<defs>
<clipPath id="clip0_29_13">
<rect width="299" height="440" fill="white" transform="matrix(0 1 -1 0 440 0)"/>
</clipPath>
</defs>
</svg>
