<svg width="355" height="176" viewBox="0 0 355 176" fill="none" xmlns="http://www.w3.org/2000/svg">
<path d="M273.893 132.523C269.069 132.523 265.422 131.26 262.953 128.733C260.541 126.206 259.335 122.358 259.335 117.19V104.269C259.335 99.1579 260.541 95.339 262.953 92.8122C265.422 90.2279 269.011 88.9358 273.72 88.9358C278.487 88.9358 282.047 90.2279 284.402 92.8122C286.814 95.339 288.02 99.1292 288.02 104.183V111.763C288.02 112.395 287.761 112.711 287.244 112.711H267.432V116.932C267.432 119.975 267.949 122.186 268.983 123.564C270.016 124.943 271.71 125.632 274.065 125.632C275.96 125.632 277.367 125.23 278.286 124.426C279.262 123.564 279.693 122.301 279.578 120.636C279.578 120.004 279.836 119.688 280.353 119.688H286.641C287.101 119.688 287.388 119.975 287.503 120.55C287.56 124.397 286.44 127.355 284.143 129.422C281.846 131.489 278.429 132.523 273.893 132.523ZM267.432 106.595H280.009V103.924C280.009 101.11 279.52 99.0717 278.544 97.8083C277.568 96.4875 275.989 95.8271 273.806 95.8271C271.624 95.8271 270.016 96.4875 268.983 97.8083C267.949 99.1292 267.432 101.168 267.432 103.924V106.595Z" fill="#0A1455"/>
<path d="M245.872 131.834C245.355 131.834 245.097 131.547 245.097 130.973V73.8614C245.097 73.2871 245.355 73 245.872 73H252.419C252.936 73 253.194 73.2871 253.194 73.8614V130.973C253.194 131.547 252.936 131.834 252.419 131.834H245.872Z" fill="#0A1455"/>
<path d="M212.857 131.834C212.34 131.834 212.081 131.547 212.081 130.973V73.8614C212.081 73.2871 212.34 73 212.857 73H219.403C219.92 73 220.178 73.2871 220.178 73.8614V96.6887C220.178 98.5264 220.15 100.364 220.092 102.202C220.092 103.982 220.064 105.791 220.006 107.629H220.092C220.896 106.25 221.672 104.93 222.418 103.666C223.165 102.345 223.997 101.024 224.916 99.7036L231.549 90.142C231.779 89.7975 232.066 89.6252 232.41 89.6252H240.249C240.536 89.6252 240.709 89.74 240.766 89.9697C240.881 90.142 240.824 90.3717 240.594 90.6589L229.654 106.164L241.628 130.714C241.8 131.001 241.829 131.26 241.714 131.49C241.656 131.719 241.455 131.834 241.111 131.834H233.616C233.214 131.834 232.899 131.633 232.669 131.231L224.141 112.883L220.178 118.224V130.973C220.178 131.547 219.949 131.834 219.489 131.834H212.857Z" fill="#0A1455"/>
<path d="M188.926 131.834C188.409 131.834 188.151 131.547 188.151 130.973V100.22C188.151 98.0955 188.122 96.2865 188.065 94.7934C188.007 93.2429 187.921 91.8646 187.806 90.6587C187.692 89.9695 187.921 89.625 188.495 89.625H194.267C194.726 89.625 195.013 89.8834 195.128 90.4002C195.301 91.4913 195.444 92.7835 195.559 94.2766C195.674 95.7697 195.731 97.0331 195.731 98.0668L196.248 100.565V130.973C196.248 131.547 195.99 131.834 195.473 131.834H188.926ZM195.473 103.752L195.128 96.4301C195.99 95.1667 196.995 93.9607 198.143 92.8122C199.292 91.6636 200.498 90.7448 201.761 90.0557C203.082 89.3091 204.403 88.9358 205.724 88.9358C206.126 88.9358 206.442 88.9358 206.671 88.9358C206.958 88.9358 207.245 88.9933 207.533 89.1081C207.762 89.1655 207.906 89.2804 207.963 89.4527C208.078 89.625 208.136 89.8834 208.136 90.2279C208.193 91.4339 208.193 92.6686 208.136 93.932C208.136 95.138 208.078 96.3439 207.963 97.5499C207.906 98.0668 207.59 98.2965 207.016 98.239C206.671 98.1242 206.298 98.0668 205.896 98.0668C205.551 98.0093 205.149 97.9806 204.69 97.9806C203.656 97.9806 202.594 98.2103 201.503 98.6697C200.412 99.1292 199.349 99.7896 198.316 100.651C197.282 101.512 196.334 102.546 195.473 103.752Z" fill="#0A1455"/>
<path d="M175.194 131.834C174.792 131.834 174.505 131.518 174.333 130.886C174.218 130.082 174.074 128.934 173.902 127.441C173.787 125.89 173.73 124.541 173.73 123.392L173.127 121.669V101.857C173.127 99.5599 172.782 97.9806 172.093 97.1192C171.404 96.2004 170.112 95.741 168.217 95.741C164.771 95.741 163.163 97.4638 163.393 100.909C163.393 101.541 163.106 101.857 162.531 101.857H156.674C156.042 101.857 155.698 101.426 155.64 100.565C155.353 96.8895 156.301 94.0469 158.483 92.0369C160.722 89.9695 164.053 88.9358 168.475 88.9358C172.954 88.9358 176.199 89.9408 178.209 91.9508C180.219 93.9607 181.224 97.2628 181.224 101.857V121.239C181.224 123.536 181.253 125.46 181.31 127.01C181.425 128.503 181.511 129.767 181.569 130.8C181.683 131.489 181.454 131.834 180.879 131.834H175.194ZM162.79 132.523C160.091 132.523 157.966 131.547 156.415 129.594C154.922 127.584 154.176 124.742 154.176 121.066C154.176 116.932 155.209 113.744 157.277 111.505C159.402 109.265 162.962 107.887 167.958 107.37L174.074 106.681V112.194L168.992 112.711C166.523 112.998 164.742 113.744 163.651 114.95C162.618 116.099 162.101 117.85 162.101 120.205C162.101 121.985 162.388 123.363 162.962 124.34C163.536 125.259 164.426 125.718 165.632 125.718C166.896 125.718 168.188 125.259 169.509 124.34C170.83 123.421 172.466 121.784 174.419 119.43L174.763 125.287C172.639 127.757 170.657 129.594 168.82 130.8C167.039 131.949 165.029 132.523 162.79 132.523Z" fill="#0A1455"/>
<path d="M138.082 132.523C136.417 132.523 134.665 132.293 132.828 131.834C130.99 131.375 129.411 130.743 128.09 129.939L128.004 123.22C129.152 123.852 130.387 124.397 131.708 124.857C133.029 125.259 134.321 125.46 135.584 125.46C137.479 125.46 138.886 124.77 139.805 123.392C140.781 122.014 141.269 119.86 141.269 116.932V102.46C141.269 100.278 140.925 98.6985 140.236 97.7222C139.604 96.6885 138.542 96.1717 137.049 96.1717C135.613 96.1717 134.148 96.6885 132.655 97.7222C131.22 98.6985 129.64 100.134 127.918 102.029L127.229 95.9994C129.296 93.7597 131.335 92.0369 133.345 90.8309C135.354 89.5675 137.565 88.9358 139.977 88.9358C143.136 88.9358 145.49 89.9408 147.041 91.9508C148.649 93.9607 149.453 97.1192 149.453 101.426V117.362C149.453 122.473 148.477 126.292 146.524 128.819C144.572 131.288 141.758 132.523 138.082 132.523ZM121.802 147.77C121.285 147.77 121.026 147.483 121.026 146.909V99.7034C121.026 97.8658 120.998 96.2004 120.94 94.7073C120.883 93.1567 120.797 91.8072 120.682 90.6587C120.567 89.9695 120.797 89.625 121.371 89.625H127.142C127.602 89.625 127.889 89.8834 128.004 90.4002C128.119 91.0894 128.233 92.0369 128.348 93.2429C128.463 94.4488 128.521 95.5113 128.521 96.4301L129.124 99.6173V146.909C129.124 147.483 128.865 147.77 128.348 147.77H121.802Z" fill="#0A1455"/>
<path d="M98.8592 132.523C93.0016 132.523 88.8095 131.03 86.2827 128.044C83.8133 125.058 82.8083 121.095 83.2677 116.157C83.3252 115.353 83.6123 114.951 84.1291 114.951H90.5036C91.0778 114.951 91.365 115.353 91.365 116.157C91.1353 119.2 91.6808 121.497 93.0016 123.048C94.3799 124.541 96.4473 125.288 99.2038 125.288C101.903 125.288 103.884 124.685 105.147 123.479C106.411 122.273 107.043 120.377 107.043 117.793C107.043 116.472 106.87 115.295 106.526 114.261C106.181 113.228 105.607 112.28 104.803 111.419C104.056 110.557 103.023 109.753 101.702 109.007L92.4848 103.58C89.3837 101.685 87.1154 99.5888 85.6797 97.2917C84.3014 94.9372 83.641 92.0659 83.6984 88.6777C83.7559 84.1409 85.048 80.6953 87.5748 78.3408C90.159 75.9288 93.8918 74.7229 98.7731 74.7229C104.171 74.7229 108.22 76.1298 110.919 78.9438C113.675 81.7003 114.824 85.6053 114.365 90.6589C114.25 91.5203 113.963 91.951 113.503 91.951H106.956C106.382 91.951 106.152 91.5203 106.267 90.6589C106.497 87.9598 105.951 85.8637 104.631 84.3706C103.367 82.8201 101.472 82.0448 98.9454 82.0448C96.7057 82.0448 94.9829 82.5904 93.7769 83.6815C92.5709 84.7152 91.968 86.3232 91.968 88.5054C91.9105 90.5153 92.3125 92.1807 93.1739 93.5015C94.0353 94.7649 95.471 95.9709 97.481 97.1195L106.44 102.46C108.622 103.724 110.345 105.073 111.608 106.509C112.929 107.887 113.876 109.495 114.451 111.333C115.025 113.113 115.312 115.266 115.312 117.793C115.312 122.445 113.991 126.063 111.35 128.647C108.708 131.231 104.545 132.523 98.8592 132.523Z" fill="#0A1455"/>
<path d="M296.161 93.0348C295.98 92.884 295.879 92.6976 295.858 92.4756C295.805 91.9205 296.366 91.4185 297.541 90.9697C298.711 90.4653 300.366 90.1106 302.505 89.9054C304.481 89.716 305.985 90.1039 307.019 91.0692C308.048 91.979 308.713 93.1476 309.016 94.5751L308.054 100.13C309.052 98.4093 310.524 96.7275 312.47 95.0842C314.412 93.3855 316.41 91.9894 318.464 90.896C320.519 89.8026 322.232 89.1902 323.604 89.0586C326.511 88.7798 328.677 89.1323 330.1 90.1163C331.518 91.0448 332.339 92.6747 332.563 95.0063C330.145 103.866 328.889 113.286 328.794 123.267L330.338 127.237C329.802 128.576 328.965 129.665 327.827 130.503C326.749 131.39 325.086 131.942 322.836 132.158C321.519 132.284 320.517 131.932 319.828 131.102C319.139 130.271 318.731 129.19 318.603 127.858C318.247 124.138 318.377 120.008 318.993 115.467C319.659 110.866 320.482 106.165 321.461 101.365C321.84 99.5359 322.026 98.5937 322.021 98.5382C321.946 97.761 321.47 97.4145 320.592 97.4987C319.385 97.6144 317.63 98.6511 315.326 100.609C313.077 102.561 310.86 105.715 308.675 110.07C306.485 114.37 304.911 119.899 303.953 126.657C303.876 127.001 303.797 127.625 303.717 128.529C303.638 129.433 303.26 130.113 302.584 130.57C301.903 130.972 300.767 131.249 299.176 131.401C297.365 131.575 296.002 131.51 295.087 131.205C294.227 130.895 293.735 130.102 293.613 128.825C293.703 128.033 293.86 127.065 294.082 125.923C296.024 112.684 297.51 102.485 298.54 95.3276L296.161 93.0348Z" fill="#FFCD00"/>
<path d="M20.1023 79.9207L21.169 80.5456C36.3906 89.4629 55.3184 89.2222 70.3069 79.9207C60.9772 94.8639 60.7357 113.734 69.6801 128.91L70.3069 129.974C54.9797 120.296 35.4295 120.296 20.1023 129.974C29.8095 114.693 29.8095 95.2015 20.1023 79.9207Z" fill="#FFCD00"/>
<path d="M87.9816 39.528L88.4842 39.8899C95.7451 45.1178 105.313 45.8979 113.325 41.9152V41.9152V41.9152C107.9 49.0148 106.877 58.5316 110.668 66.6216L110.93 67.1816V67.1816C103.656 61.5675 93.783 60.64 85.5872 64.7944V64.7944V64.7944C91.2154 57.546 92.1507 47.7033 87.9816 39.528V39.528Z" fill="#FFCD00"/>
<path d="M130.591 23.0964L130.786 23.4395C133.737 28.627 139.323 31.7534 145.288 31.5561V31.5561V31.5561C140.023 34.3585 136.754 39.8506 136.8 45.8141L136.803 46.2086V46.2086C133.956 40.7928 128.219 37.4991 122.106 37.749V37.749V37.749C127.525 34.918 130.842 29.2055 130.591 23.0964V23.0964Z" fill="#FFCD00"/>
<path d="M159.56 21.8884L159.665 22.1283C161.253 25.7763 164.734 28.2438 168.702 28.5343V28.5343V28.5343C165.013 30.0202 162.455 33.4305 162.061 37.3878L162.036 37.648V37.648C160.534 33.8569 156.963 31.2682 152.894 31.0021V31.0021V31.0021C156.687 29.5087 159.293 25.9558 159.56 21.8884V21.8884Z" fill="#FFCD00"/>
</svg>
